<?xml version="1.0" standalone="no"?>
<!DOCTYPE svg PUBLIC "-//W3C//DTD SVG 20010904//EN"
 "http://www.w3.org/TR/2001/REC-SVG-20010904/DTD/svg10.dtd">
<svg version="1.0" xmlns="http://www.w3.org/2000/svg"
 width="500.000000pt" height="500.000000pt" viewBox="0 0 500.000000 500.000000"
 preserveAspectRatio="xMidYMid meet">
<metadata>
Created by potrace 1.11, written by Peter Selinger 2001-2013
</metadata>
<g transform="translate(0.000000,500.000000) scale(0.100000,-0.100000)"
fill="#000000" stroke="none">
<path d="M1093 3500 c-78 -11 -217 -48 -238 -64 -16 -11 -16 -83 -9 -944 l7
-932 76 -24 c353 -112 751 -11 1013 257 121 124 214 288 259 457 20 72 23 110
23 250 0 141 -3 178 -23 250 -46 172 -127 314 -256 448 -181 190 -416 296
-679 306 -61 3 -139 1 -173 -4z"/>
<path d="M3471 3451 c-40 -10 -114 -39 -165 -64 -276 -137 -446 -451 -408
-751 18 -146 82 -301 162 -395 l21 -25 535 535 535 534 -28 23 c-54 45 -159
101 -238 128 -108 36 -301 44 -414 15z"/>
<path d="M3331 2386 c-410 -410 -602 -609 -598 -619 8 -23 117 -102 199 -146
40 -22 114 -52 163 -67 81 -25 105 -27 240 -27 135 0 159 2 240 27 233 71 412
216 523 427 164 308 128 673 -93 952 -25 31 -51 57 -58 57 -6 0 -284 -272
-616 -604z"/>
</g>
</svg>
