<?xml version="1.0" encoding="UTF-8"?>
<svg width="355px" height="355px" viewBox="0 0 355 355" version="1.1" xmlns="http://www.w3.org/2000/svg" xmlns:xlink="http://www.w3.org/1999/xlink">
    <!-- Generator: Sketch 48.2 (47327) - http://www.bohemiancoding.com/sketch -->
    <title>rect5-5</title>
    <desc>Created with Sketch.</desc>
    <defs></defs>
    <g id="Page-1" stroke="none" stroke-width="1" fill="none" fill-rule="evenodd">
        <g id="pds_work" transform="translate(-857.000000, 0.000000)" fill="#FFFFFF" fill-rule="nonzero">
            <path d="M857.29628,0.47691 L857.29628,354.80894 L1211.6264,354.80894 L1211.6264,0.47691 L857.29628,0.47691 Z M942.13027,106.172218 C950.79906,106.140018 959.49902,107.660138 967.66933,110.734718 C977.87919,114.576788 987.44083,120.980428 994.72792,128.857758 C1003.4529,138.289428 1009.3318,149.308638 1012.142,161.496438 C1017.0944,182.975188 1011.9574,205.389238 998.1615,222.484718 C989.87431,232.754028 978.85969,240.586988 966.52285,244.984718 C960.64592,247.079678 954.83625,248.327698 948.33925,248.890968 C946.12528,249.082908 940.76712,249.165448 938.67909,249.039408 L938.67709,249.039408 C933.54973,248.729308 929.13892,248.042978 924.33725,246.808938 C922.25929,246.274888 918.0373,244.925878 916.62436,244.346048 L916.00131,244.092138 L915.97791,238.931978 C915.88361,218.885308 915.43273,115.027558 915.43299,113.433938 L915.43299,111.447608 L916.78065,110.922218 C924.82486,107.787418 933.46146,106.204418 942.13026,106.172218 L942.13027,106.172218 Z M1114.3823,108.660498 C1118.3459,108.649778 1122.3205,109.077928 1126.2475,109.943698 C1133.9928,111.651308 1141.5663,115.268928 1147.7846,120.234718 C1148.4967,120.803388 1149.2881,121.454398 1149.5444,121.680028 L1150.0112,122.090188 L1112.1655,159.939798 C1091.3507,180.757118 1074.2885,197.789408 1074.2494,197.789408 C1074.2104,197.789408 1073.7241,197.241758 1073.1693,196.572608 C1066.3429,188.339598 1062.2883,178.720258 1061.0443,167.812838 C1060.8172,165.821208 1060.7855,159.056058 1060.9953,157.148778 C1061.747,150.321238 1063.3415,144.666168 1066.132,138.920258 C1068.8176,133.390278 1072.0592,128.850728 1076.4875,124.422218 C1082.9005,118.008868 1090.6166,113.419658 1099.2727,110.867528 C1104.2079,109.412448 1109.2859,108.674278 1114.3821,108.660498 L1114.3823,108.660498 Z M1135.5151,142.381198 L1136.6947,143.603858 C1138.0961,145.056418 1140.1171,147.451108 1141.3979,149.176118 C1150.6523,161.640348 1154.8222,177.090108 1153.1088,192.560888 C1151.1042,210.662338 1141.1127,226.935928 1125.8334,236.984718 C1117.3711,242.550178 1107.7855,245.878078 1097.5151,246.814798 C1095.8249,246.968938 1090.8326,247.093198 1089.5405,247.014008 C1082.2891,246.569608 1076.6405,245.418758 1070.4369,243.119478 C1062.9701,240.351968 1055.6224,235.743898 1049.7807,230.166358 L1048.7455,229.178078 L1092.1303,185.779638 L1135.5151,142.381198 Z" id="rect5-5"></path>
        </g>
    </g>
</svg>